<svg xmlns="http://www.w3.org/2000/svg" version="1.1" xmlns:xlink="http://www.w3.org/1999/xlink" xmlns:svgjs="http://svgjs.dev/svgjs" viewBox="0 0 1920 1080"><rect width="1920" height="1080" fill="#ffffff"></rect><g transform="matrix(0.5750000000000001,0.9959292143521044,-0.9959292143521044,0.5750000000000001,925.1950862970112,-678.3030951016706)"><path d="M0,-1080C-8.57480782143624,-999.3417521769529,-45.53249825294533,-742.054633788315,-51.448846928617435,-596.0505130617173C-57.36519560428954,-450.04639233511966,-41.389357574376405,-370.51824221145444,-35.49809205403264,-203.9752756404139C-29.60682653368887,-37.43230906937342,-35.63879080295517,225.58921524366045,-16.101253806554823,403.20728636452566C3.4362831898455255,580.8253574853909,94.98807705019848,729.8751801141948,81.72712992436945,861.7331510847773C68.46618279854042,993.5911220553598,-82.23419932552038,1052.0836065389929,-95.66693656152903,1194.3551121880205C-109.09967379753768,1336.6266178370481,-14.81378291860396,1554.4213703436137,1.1307065083175445,1715.3621849789436C17.07519593523905,1876.3029996142734,0.18845108471959074,2085.8936974964904,0,2160L 1920 2160 L 1920 -1080 Z" fill="url(&quot;#SvgjsLinearGradient1442&quot;)"></path><path d="M384,-1080C398.47831600921074,-1029.0667967583033,458.37144127602267,-891.4145343729829,470.8698960552644,-774.4007805498204C483.36835083450615,-657.387026726658,478.68887148839707,-536.0471820702761,458.99072867545044,-377.917477061025C439.2925858625038,-219.78777205177389,357.4773993809566,5.753994710321734,352.6810391775845,174.37744950568646C347.8846789742124,343.00090430105115,408.8707797960988,510.2256770086014,430.2125674552178,633.8232517111633C451.55435511433683,757.4208264137251,490.4449222114524,807.3778529893326,480.7317651322985,915.9628977210576C471.0186080531446,1024.5479424527825,402.8262706643408,1150.884285375514,371.9336249802942,1285.3335201015134C341.0409792962476,1419.7827548275127,293.36482852473443,1576.880559427306,295.3758910280187,1722.6583060770538C297.386953531303,1868.4360527268016,369.22931517133645,2087.109717679509,384,2160L 1920 2160 L 1920 -1080 Z" fill="url(&quot;#SvgjsLinearGradient1443&quot;)"></path><path d="M768,-1080C758.4331560217576,-983.5381543494622,693.5701662136779,-694.0506393031765,710.5989361305451,-501.22892609677274C727.6277060474123,-308.407212890369,845.754004110749,-88.09063137048443,870.172619501203,76.93027923842257C894.5912348916571,241.95118984732957,888.857553787165,332.62260148212886,857.1106284732693,488.8965375566692C825.3637031593737,645.1704736312096,689.4605603308386,827.3283614059413,679.6910676178288,1014.5738956856645C669.9215749048191,1201.8194299653876,783.7755167981823,1421.4653925159523,798.4936721952108,1612.3697432350082C813.2118275922394,1803.274093954064,773.0822786992018,2068.728290539168,768,2160L 1920 2160 L 1920 -1080 Z" fill="url(&quot;#SvgjsLinearGradient1444&quot;)"></path><path d="M1152,-1080C1147.5545569754443,-1015.0640093639199,1114.4257867540025,-841.5278510899053,1125.3273418526655,-690.3840561835195C1136.2288969513286,-539.2402612771338,1204.127456849804,-324.4333409367443,1217.4093305919782,-173.13723056168527C1230.6912043341524,-21.841120186626256,1219.1445844148516,52.76785045170308,1205.0185843057109,217.39260606683462C1190.8925841965702,382.0173616819661,1126.9235388464817,640.4656638848332,1132.6533299371347,814.6113031291038C1138.3831210277876,988.7569423733744,1235.5270782089349,1114.8193147478007,1239.3973308496288,1262.2664415324582C1243.2675834903227,1409.7135683171157,1170.4410675895701,1549.6718040924584,1155.8748457812987,1699.2940638370487C1141.3086239730274,1848.916323581639,1152.6458076302165,2083.2156773061747,1152,2160L 1920 2160 L 1920 -1080 Z" fill="url(&quot;#SvgjsLinearGradient1445&quot;)"></path><path d="M1536,-1080C1552.9062349186117,-997.9154031796162,1622.7750143941648,-728.9669880102549,1637.4374095116702,-587.4924190776971C1652.0998046291757,-446.0178501451394,1656.3113766653466,-336.2254053791512,1623.9743707050318,-231.15258640465325C1591.637364744717,-126.07976743015531,1441.8570930621602,-72.56613114614505,1443.4153737497813,42.94449476929046C1444.9736544374025,158.45512068472596,1617.420141331459,293.4633537144226,1633.3240548307583,461.9111690879598C1649.2279683300576,630.358984461497,1536.8484570080523,901.4093188092993,1538.8388547455768,1053.631387010514C1540.8292524831013,1205.8534552117285,1644.7478212316003,1247.0339546239313,1645.2664412559047,1375.2435782952473C1645.7850612802092,1503.4532019665633,1560.161648434055,1692.0963920876175,1541.9505748914041,1822.8891290384095C1523.7395013487533,1953.6818659892015,1536.9917624819007,2103.814854839735,1536,2160L 1920 2160 L 1920 -1080 Z" fill="url(&quot;#SvgjsLinearGradient1446&quot;)"></path></g><defs><linearGradient x1="0.1" y1="0" x2="0" y2="1" id="SvgjsLinearGradient1442"><stop stop-color="#ffffff" offset="0"></stop><stop stop-color="#ffffff" offset="0"></stop></linearGradient><linearGradient x1="0.1" y1="0" x2="0" y2="1" id="SvgjsLinearGradient1443"><stop stop-color="#cccccc" offset="0"></stop><stop stop-color="#cccccc" offset="0.2"></stop></linearGradient><linearGradient x1="0.1" y1="0" x2="0" y2="1" id="SvgjsLinearGradient1444"><stop stop-color="#999999" offset="0"></stop><stop stop-color="#999999" offset="0.4"></stop></linearGradient><linearGradient x1="0.1" y1="0" x2="0" y2="1" id="SvgjsLinearGradient1445"><stop stop-color="#666666" offset="0"></stop><stop stop-color="#666666" offset="0.6"></stop></linearGradient><linearGradient x1="0.1" y1="0" x2="0" y2="1" id="SvgjsLinearGradient1446"><stop stop-color="#333333" offset="0"></stop><stop stop-color="#333333" offset="0.8"></stop></linearGradient></defs></svg>